# xmcd
#
# Track frame offsets:
#	150
#	26416
#	48984
#	62578
#	84462
#	108451
#	123388
#	142985
#	159252
#	178399
#
# Disc length: 2625 seconds
#
# Revision: 1
# Processed by: cddbd v1.4PL0 Copyright (c) Steve Scherf et al.
# Submitted via: audiograbber 1.81.02
#
DISCID=7e0a3f0a
DTITLE=Julius Magan - It's all about you
DYEAR=1900
DGENRE=Gospel
TTITLE0=Sometimes Alleluia
TTITLE1=It's all about You
TTITLE2=Sweetest rose of Sharon
TTITLE3=The Lord is gracious and compassionate
TTITLE4=Thine is the Kingdom
TTITLE5=A passion like fire
TTITLE6=Theresa's song
TTITLE7=Breathe
TTITLE8=Find me in the river
TTITLE9=I wish we'd all been ready
EXTD=
EXTT0=
EXTT1=
EXTT2=
EXTT3=
EXTT4=
EXTT5=
EXTT6=
EXTT7=
EXTT8=
EXTT9=
PLAYORDER=
